<?xml version="1.0" encoding="UTF-8" standalone="no"?>
<!-- Created with Inkscape (http://www.inkscape.org/) -->

<svg
   xmlns:dc="http://purl.org/dc/elements/1.1/"
   xmlns:cc="http://creativecommons.org/ns#"
   xmlns:rdf="http://www.w3.org/1999/02/22-rdf-syntax-ns#"
   xmlns:svg="http://www.w3.org/2000/svg"
   xmlns="http://www.w3.org/2000/svg"
   xmlns:sodipodi="http://sodipodi.sourceforge.net/DTD/sodipodi-0.dtd"
   xmlns:inkscape="http://www.inkscape.org/namespaces/inkscape"
   width="332.41794"
   height="103.61175"
   id="svg5638"
   version="1.1"
   inkscape:version="0.48.4 r9939"
   inkscape:export-filename="C:\projects\ludumdare\GoDownWithTheShip-assets\spritesheet_input\firstFloorInstructions.png"
   inkscape:export-xdpi="90"
   inkscape:export-ydpi="90"
   sodipodi:docname="drawing.svg">
  <defs
     id="defs5640" />
  <sodipodi:namedview
     id="base"
     pagecolor="#ffffff"
     bordercolor="#666666"
     borderopacity="1.0"
     inkscape:pageopacity="0.0"
     inkscape:pageshadow="2"
     inkscape:zoom="1.979899"
     inkscape:cx="67.96623"
     inkscape:cy="16.906612"
     inkscape:document-units="px"
     inkscape:current-layer="layer1"
     showgrid="false"
     fit-margin-top="0"
     fit-margin-left="0"
     fit-margin-right="0"
     fit-margin-bottom="0"
     inkscape:window-width="1680"
     inkscape:window-height="998"
     inkscape:window-x="-8"
     inkscape:window-y="-8"
     inkscape:window-maximized="1" />
  <metadata
     id="metadata5643">
    <rdf:RDF>
      <cc:Work
         rdf:about="">
        <dc:format>image/svg+xml</dc:format>
        <dc:type
           rdf:resource="http://purl.org/dc/dcmitype/StillImage" />
        <dc:title></dc:title>
      </cc:Work>
    </rdf:RDF>
  </metadata>
  <g
     inkscape:label="Layer 1"
     inkscape:groupmode="layer"
     id="layer1"
     transform="translate(-231.90625,-76.491533)">
    <text
       xml:space="preserve"
       style="font-size:19.68130875px;font-style:normal;font-variant:normal;font-weight:bold;font-stretch:normal;text-align:start;line-height:125%;letter-spacing:0px;word-spacing:0px;writing-mode:lr-tb;text-anchor:start;fill:#f9f9f9;fill-opacity:1;stroke:none;font-family:Segoe Script;-inkscape-font-specification:Segoe Script Bold"
       x="226.71454"
       y="100.66995"
       id="text5646"
       sodipodi:linespacing="125%"
       transform="scale(1.0383205,0.96309377)"
       inkscape:export-filename="C:\projects\ludumdare\GoDownWithTheShip-assets\spritesheet_input\firstFloorInstructions.png"
       inkscape:export-xdpi="90"
       inkscape:export-ydpi="90"><tspan
         sodipodi:role="line"
         id="tspan5648"
         x="226.71454"
         y="100.66995"
         style="font-size:27.82245445px;font-style:normal;font-variant:normal;font-weight:bold;font-stretch:normal;text-align:start;line-height:125%;writing-mode:lr-tb;text-anchor:start;fill:#f9f9f9;font-family:Segoe Script;-inkscape-font-specification:Segoe Script Bold">First Floor</tspan></text>
    <path
       style="fill:#f9f9f9;fill-opacity:1;stroke:#555555;stroke-width:0;stroke-miterlimit:4;stroke-opacity:0.59064331;stroke-dasharray:none"
       id="path5654"
       d="m 231.94111,108.03328 c 3.12682,-1.27262 6.28038,-2.5489 9.70482,-3.45418 1.04796,-0.35424 2.22124,-0.47984 3.28312,-0.80363 1.01259,-0.27923 2.09739,-0.42629 3.17055,-0.57064 1.6612,-0.14946 3.32206,-0.30566 4.99169,-0.41183 1.16645,-0.075 2.33749,-0.10063 3.50893,-0.10473 1.31846,-9.7e-4 2.63687,0.006 3.9553,0.006 1.45195,9.7e-4 2.90389,10e-4 4.35583,10e-4 2.00984,-0.0673 3.98585,0.15364 5.96168,0.3551 2.38932,0.18462 4.76839,0.41312 7.14539,0.65577 3.57621,0.37846 7.14493,0.78736 10.72754,1.13952 3.45647,0.27894 6.92617,0.49617 10.40285,0.63543 1.9834,0.10734 3.97979,0.0346 5.96236,0.12896 1.17601,0.068 2.34762,0.12338 3.50993,0.25788 1.04576,0.0557 2.04796,0.1964 3.05815,0.37294 1.09372,0.19364 2.1764,0.37006 3.3055,0.45015 1.69738,0.0845 3.40207,0.0816 5.1034,0.0898 3.08468,0.0458 6.16637,-0.068 9.248,-0.13886 3.00097,-0.12884 6.00318,-0.23403 9.00926,-0.29553 2.26668,-0.0388 4.53428,-0.0495 6.80164,-0.0587 1.63044,0.0461 3.21571,-0.22978 4.80815,-0.40962 2.07585,-0.29493 4.14544,-0.59249 6.234,-0.84874 1.98013,-0.30697 3.9819,-0.56034 5.95437,-0.88816 1.77772,-0.32002 3.58625,-0.53868 5.41175,-0.7057 3.02471,-0.30131 6.06344,-0.54228 9.10109,-0.78233 2.87401,-0.20563 5.71115,-0.52782 8.48313,-1.06183 1.67256,-0.36811 3.32772,-0.77119 5.0086,-1.12288 0.88875,-0.21757 1.84087,-0.33632 2.68273,-0.632198 0.60317,-0.252731 0.29776,-0.136086 0.91515,-0.351129 -8.0297,2.985517 -4.39837,1.700197 -2.68051,0.913207 1.80253,-0.930695 3.98342,-1.480612 5.93873,-2.266083 0,0 -4.27912,2.229893 -4.27912,2.229893 l 0,0 c -1.84238,0.51799 -0.1281,0.0438 4.17842,-1.595732 0.3221,-0.122641 -0.9783,0.299275 -0.73636,0.335656 -2.19152,0.898936 -4.19345,1.968926 -6.66572,2.603566 -1.14374,0.41242 -2.37539,0.66511 -3.62262,0.91496 -1.66507,0.36638 -3.31925,0.75468 -4.99626,1.09757 -2.76597,0.48419 -5.59172,0.76023 -8.43613,0.97257 -3.06897,0.25052 -6.13685,0.51151 -9.18939,0.83679 -1.81693,0.19043 -3.61648,0.42672 -5.39444,0.73763 -1.97618,0.30584 -3.96474,0.58065 -5.94939,0.86154 -2.09838,0.25866 -4.17053,0.5856 -6.2635,0.86032 -1.60646,0.19939 -3.21795,0.41865 -4.86487,0.35907 -2.24493,-0.004 -4.49007,-9.9e-4 -6.73436,0.0392 -2.99614,0.0583 -5.98768,0.16945 -8.97986,0.28343 -3.10323,0.07 -6.20567,0.17387 -9.31185,0.15269 -1.73733,9.7e-4 -3.48159,0.027 -5.21216,-0.0908 -1.14097,-0.10187 -2.24033,-0.2996 -3.35384,-0.48629 -1.0008,-0.16755 -2.01565,-0.25 -3.03765,-0.34458 -1.14031,-0.12277 -2.29573,-0.16813 -3.44523,-0.24225 -1.95872,-0.0729 -3.92535,-0.0496 -5.88116,-0.16827 -3.4607,-0.17225 -6.91571,-0.40054 -10.35754,-0.69131 -3.60467,-0.36488 -7.20357,-0.75381 -10.81266,-1.10055 -2.3848,-0.23164 -4.77206,-0.4482 -7.16351,-0.64809 -1.97925,-0.19618 -3.95938,-0.35569 -5.96732,-0.28655 -1.45218,-1e-4 -2.90437,-1.9e-4 -4.35655,-0.002 -1.325,-10e-4 -2.65009,-2.6e-4 -3.97502,0.009 -1.15113,0.0139 -2.30249,0.04 -3.44866,0.11505 -1.66008,0.11393 -3.31947,0.25211 -4.96126,0.4484 -1.07052,0.16452 -2.14158,0.33909 -3.14497,0.6391 -1.07219,0.26395 -2.19522,0.44077 -3.22852,0.77382 -0.79014,0.22058 -0.93408,0.25209 -1.72873,0.51202 -0.32087,0.10498 -1.26184,0.44608 -0.9537,0.32611 6.95875,-2.70945 3.85468,-1.45949 2.29285,-0.84293 0,0 -5.08205,1.2909 -5.08205,1.2909 z"
       inkscape:connector-curvature="0"
       inkscape:export-filename="C:\projects\ludumdare\GoDownWithTheShip-assets\spritesheet_input\firstFloorInstructions.png"
       inkscape:export-xdpi="90"
       inkscape:export-ydpi="90" />
    <text
       xml:space="preserve"
       style="font-size:19.68130875px;font-style:normal;font-variant:normal;font-weight:normal;font-stretch:normal;line-height:125%;letter-spacing:0px;word-spacing:0px;fill:#f2f2f2;fill-opacity:1;stroke:none;font-family:Droid Sans;-inkscape-font-specification:Droid Sans"
       x="224.32932"
       y="133.07353"
       id="text5656"
       sodipodi:linespacing="125%"
       transform="scale(1.0383205,0.96309377)"
       inkscape:export-filename="C:\projects\ludumdare\GoDownWithTheShip-assets\spritesheet_input\firstFloorInstructions.png"
       inkscape:export-xdpi="90"
       inkscape:export-ydpi="90"><tspan
         sodipodi:role="line"
         id="tspan5658"
         x="224.32932"
         y="133.07353">Poor Bob needs your help to escape </tspan><tspan
         sodipodi:role="line"
         x="224.32932"
         y="157.67517"
         id="tspan5660">before this floor floods.</tspan><tspan
         sodipodi:role="line"
         x="224.32932"
         y="182.27681"
         id="tspan5662">Drag him to the stairs.</tspan></text>
  </g>
</svg>
