<?xml version="1.0" encoding="UTF-8" standalone="no"?>
<!-- Created with Inkscape (http://www.inkscape.org/) -->

<svg
   xmlns:dc="http://purl.org/dc/elements/1.1/"
   xmlns:cc="http://creativecommons.org/ns#"
   xmlns:rdf="http://www.w3.org/1999/02/22-rdf-syntax-ns#"
   xmlns:svg="http://www.w3.org/2000/svg"
   xmlns="http://www.w3.org/2000/svg"
   xmlns:sodipodi="http://sodipodi.sourceforge.net/DTD/sodipodi-0.dtd"
   xmlns:inkscape="http://www.inkscape.org/namespaces/inkscape"
   width="374.86285"
   height="155.1938"
   id="svg5638"
   version="1.1"
   inkscape:version="0.48.4 r9939"
   sodipodi:docname="SecondFloorInstructions.svg"
   inkscape:export-filename="C:\projects\ludumdare\GoDownWithTheShip-assets\spritesheet_input\secondFloorInstructions.png"
   inkscape:export-xdpi="90"
   inkscape:export-ydpi="90">
  <defs
     id="defs5640" />
  <sodipodi:namedview
     id="base"
     pagecolor="#ffffff"
     bordercolor="#666666"
     borderopacity="1.0"
     inkscape:pageopacity="0.0"
     inkscape:pageshadow="2"
     inkscape:zoom="1.4"
     inkscape:cx="224.72418"
     inkscape:cy="-57.100984"
     inkscape:document-units="px"
     inkscape:current-layer="layer1"
     showgrid="false"
     fit-margin-top="0"
     fit-margin-left="0"
     fit-margin-right="0"
     fit-margin-bottom="0"
     inkscape:window-width="744"
     inkscape:window-height="694"
     inkscape:window-x="100"
     inkscape:window-y="100"
     inkscape:window-maximized="0" />
  <metadata
     id="metadata5643">
    <rdf:RDF>
      <cc:Work
         rdf:about="">
        <dc:format>image/svg+xml</dc:format>
        <dc:type
           rdf:resource="http://purl.org/dc/dcmitype/StillImage" />
        <dc:title></dc:title>
      </cc:Work>
    </rdf:RDF>
  </metadata>
  <g
     inkscape:label="Layer 1"
     inkscape:groupmode="layer"
     id="layer1"
     transform="translate(-1.1867919,-4.8181711)">
    <text
       xml:space="preserve"
       style="font-size:14.86808681px;font-style:normal;font-variant:normal;font-weight:bold;font-stretch:normal;text-align:start;line-height:125%;letter-spacing:0px;word-spacing:0px;writing-mode:lr-tb;text-anchor:start;fill:#f2f2f2;fill-opacity:1;stroke:none;font-family:Segoe Script;-inkscape-font-specification:Segoe Script Bold"
       x="3.7050555"
       y="34.895699"
       id="text5646"
       sodipodi:linespacing="125%"
       inkscape:export-filename="C:\projects\ludumdare\GoDownWithTheShip-assets\spritesheet_input\secondFloorInstructions.png"
       inkscape:export-xdpi="90"
       inkscape:export-ydpi="90"><tspan
         sodipodi:role="line"
         id="tspan5648"
         x="3.7050555"
         y="34.895699"
         style="font-size:39.08551788px">Second Floor</tspan></text>
    <path
       style="fill:#f2f2f2;fill-opacity:1;stroke:#555555;stroke-width:0;stroke-miterlimit:4;stroke-opacity:0.59064331;stroke-dasharray:none"
       id="path5654"
       d="M 1.1867919,53.125231 C 6.352419,51.157819 11.562232,49.184758 17.219526,47.785208 c 1.731281,-0.547647 3.669582,-0.741805 5.423851,-1.242385 1.672842,-0.431671 3.464959,-0.65901 5.237878,-0.882187 2.744358,-0.231042 5.488179,-0.472524 8.246458,-0.636677 1.927022,-0.116032 3.861648,-0.155593 5.796904,-0.161927 2.178115,-0.0011 4.35619,0.009 6.534307,0.01011 2.398653,0.0011 4.797322,0.0023 7.195974,0.0023 3.320368,-0.10398 6.584788,0.237524 9.848916,0.54897 3.947267,0.285412 7.877591,0.638663 11.804503,1.013778 5.908013,0.585113 11.80368,1.217247 17.722319,1.761675 5.710184,0.431224 11.442254,0.767054 17.185874,0.982346 3.27666,0.165849 6.57478,0.05339 9.85007,0.199377 1.94278,0.105215 3.87835,0.190708 5.79855,0.39866 1.72763,0.08602 3.38329,0.303637 5.05219,0.576563 1.80685,0.299343 3.59547,0.572101 5.4608,0.695916 2.80412,0.13062 5.62035,0.126191 8.43101,0.138805 5.09601,0.07079 10.18707,-0.105103 15.27807,-0.214673 4.95772,-0.199163 9.91748,-0.361779 14.88361,-0.45688 3.74466,-0.06002 7.49084,-0.07649 11.2366,-0.09064 2.69355,0.07132 5.31249,-0.355225 7.94327,-0.633233 3.42936,-0.455955 6.84839,-0.915984 10.29877,-1.312135 3.27126,-0.474566 6.57827,-0.866259 9.83687,-1.373052 2.93683,-0.494745 5.92461,-0.832787 8.94044,-1.090998 4.99692,-0.465805 10.01698,-0.83834 15.03531,-1.209449 4.74799,-0.317885 9.43505,-0.815996 14.01448,-1.641551 2.76314,-0.569095 5.49752,-1.192221 8.27439,-1.735931 1.46827,-0.336348 3.04122,-0.519937 4.43197,-0.977355 0.99648,-0.390718 0.49193,-0.210367 1.5119,-0.542836 -13.2654,4.615513 -7.26629,2.628452 -4.42832,1.4118 2.97784,-1.43882 6.58075,-2.288983 9.81107,-3.503281 0,0 -7.06932,3.44733 -7.06932,3.44733 l 0,0 c -3.04369,0.800785 -0.21157,0.06763 6.90289,-2.466933 0.53211,-0.189581 -1.6162,0.462664 -1.2165,0.518895 -3.62048,1.389712 -6.92773,3.043892 -11.01205,4.025027 -1.88944,0.637563 -3.92422,1.028226 -5.98469,1.414468 -2.75077,0.566426 -5.48351,1.166725 -8.25403,1.696816 -4.56944,0.748538 -9.2377,1.175286 -13.93683,1.503566 -5.07001,0.387276 -10.13829,0.790758 -15.18117,1.293637 -3.00164,0.294406 -5.97459,0.659696 -8.91182,1.140331 -3.26475,0.472818 -6.54993,0.897679 -9.82863,1.331921 -3.46664,0.399882 -6.88991,0.905308 -10.34755,1.330026 -2.65394,0.308247 -5.31622,0.647209 -8.03695,0.555092 -3.70871,-0.0056 -7.41779,-0.0011 -11.12544,0.06058 -4.94974,0.09008 -9.89187,0.261968 -14.83508,0.438169 -5.12665,0.108249 -10.25201,0.268797 -15.38353,0.236054 -2.87016,0.0011 -5.75172,0.04184 -8.6107,-0.140298 -1.88494,-0.15747 -3.70113,-0.46317 -5.54067,-0.751777 -1.65337,-0.25904 -3.32994,-0.386501 -5.01831,-0.532729 -1.88383,-0.189713 -3.79266,-0.259913 -5.69166,-0.374487 -3.2359,-0.112727 -6.48482,-0.07683 -9.71591,-0.260148 C 99.362402,52.019561 93.654598,51.666654 87.968567,51.217115 82.013497,50.653022 76.067984,50.05176 70.105633,49.515711 66.165828,49.157613 62.221977,48.822812 58.271225,48.513789 c -3.269776,-0.303267 -6.54103,-0.54989 -9.858221,-0.443002 -2.399074,-1.44e-4 -4.798152,-2.9e-4 -7.197231,-0.0033 -2.188934,-0.0023 -4.378036,-3.93e-4 -6.566875,0.01332 -1.90169,0.02144 -3.803801,0.06202 -5.697292,0.177925 -2.742545,0.176087 -5.483931,0.389775 -8.196216,0.693223 -1.768524,0.254338 -3.53797,0.524224 -5.195615,0.988022 -1.771293,0.408049 -3.626577,0.681401 -5.333651,1.196305 -1.3053106,0.341003 -1.5431305,0.389711 -2.8559172,0.791554 -0.5300894,0.162252 -2.0846138,0.689634 -1.5755546,0.504157 11.4961258,-4.188708 6.3680748,-2.256319 3.7878822,-1.303148 0,0 -8.3957425,1.995688 -8.3957425,1.995688 z"
       inkscape:connector-curvature="0"
       inkscape:export-filename="C:\projects\ludumdare\GoDownWithTheShip-assets\spritesheet_input\secondFloorInstructions.png"
       inkscape:export-xdpi="90"
       inkscape:export-ydpi="90" />
    <text
       xml:space="preserve"
       style="font-size:14.86808681px;font-style:normal;font-variant:normal;font-weight:normal;font-stretch:normal;line-height:125%;letter-spacing:0px;word-spacing:0px;fill:#f2f2f2;fill-opacity:1;stroke:none;font-family:Droid Sans;-inkscape-font-specification:Droid Sans"
       x="1.9031507"
       y="82.031784"
       id="text5656"
       sodipodi:linespacing="125%"
       inkscape:export-filename="C:\projects\ludumdare\GoDownWithTheShip-assets\spritesheet_input\secondFloorInstructions.png"
       inkscape:export-xdpi="90"
       inkscape:export-ydpi="90"><tspan
         sodipodi:role="line"
         x="1.9031507"
         y="82.031784"
         id="tspan3003"
         style="font-size:19.54275894px">When you drag Bob, time starts to run out.</tspan><tspan
         sodipodi:role="line"
         x="1.9031507"
         y="106.46024"
         id="tspan3013"
         style="font-size:19.54275894px">You only have 10 seconds before the floor </tspan><tspan
         sodipodi:role="line"
         x="1.9031507"
         y="130.88869"
         id="tspan3015"
         style="font-size:19.54275894px">floods and poor Bob dies a horrible death.</tspan><tspan
         sodipodi:role="line"
         x="1.9031507"
         y="155.31712"
         id="tspan3017"
         style="font-size:19.54275894px">Find the stairs and get to the next floor! </tspan><tspan
         sodipodi:role="line"
         x="1.9031507"
         y="179.74557"
         id="tspan3009"
         style="font-size:19.54275894px" /><tspan
         sodipodi:role="line"
         x="1.9031507"
         y="204.17403"
         id="tspan3005"
         style="font-size:19.54275894px" /><tspan
         sodipodi:role="line"
         x="1.9031507"
         y="228.60248"
         id="tspan3007"
         style="font-size:19.54275894px" /></text>
  </g>
</svg>
